<?xml version="1.0"?>
<svg xmlns="http://www.w3.org/2000/svg" height="480pt" viewBox="0 0 480 480" width="480pt">

  <style>

    .sun{
      animation: popup .5s .2s ease-in-out forwards;
      transform-origin: center center;
      transform: scale(0);
      opacity: 0.7;
    }
    .cloud{
      animation: popup .5s .2s ease-in-out forwards, wave 7s .6s ease-in-out infinite, fade 7s .6s ease-in-out infinite;
      transform-origin: center center;
      transform: scale(0);
    }
     @keyframes fade {
      0% {
        opacity: 0.65;
      }
      50% {
        opacity: 0.9;
      }
      100% {
        opacity: 0.65;
      }
     }

     @keyframes wave {
          0% {
            transform: translate(0px, 0px);
          }
          30% {
            transform: translate(20px, -5px);
          }
          50% {
            transform: translate(20px, -10px);
          }
          75% {
            transform: translate(10px, 5px);
          }
          100% {
            transform: translate(0px, 0px);
          }
        }
        
    @keyframes popup {
      0% {
        opacity: 0.7;
        transform: scale(0);
      }
      80% {
        transform: scale(1.1);
      }
      100% {
        transform: scale(1);
      }
    }

    @keyframes opacity {
      0% {
        opacity: 0;
      }
      80% {
        opacity: 0.8;
      }
      100% {
        opacity: 1;
      }
    }
    .sun_wave1{
      animation: opacity .3s .5s ease-in-out forwards, move_sun_wave1 2s .8s ease-in-out infinite;
      transform-origin: center center;
      opacity:0;
    }
    @keyframes move_sun_wave1 {
      0% {
        transform: translate(0px, 0px);
      }
      50% {
        transform: translate(0px, -5px);
      }
      100% {
        transform: translate(0px, 0px);
      }
    }

    .sun_wave2{
      animation: opacity .3s .5s ease-in-out forwards, move_sun_wave2 2s .8s ease-in-out infinite;
      transform-origin: center center;
      opacity:0;
    }
    @keyframes move_sun_wave2 {
      0% {
        transform: translate(0px, 0px);
      }
      50% {
        transform: translate(0px, 5px);
      }
      100% {
        transform: translate(0px, 0px);
      }
    }

    .sun_wave3{
      animation: opacity .4s .6s ease-in-out forwards, move_sun_wave3 1.5s .9s ease-in-out infinite;
      transform-origin: center center;
      opacity:0;
    }
    @keyframes move_sun_wave3 {
      0% {
        transform: translate(0px, 0px);
      }
      50% {
        transform: translate(-5px, -5px);
      }
      100% {
        transform: translate(0px, 0px);
      }
    }

    .sun_wave4{
      animation: opacity .4s .6s ease-in-out forwards, move_sun_wave4 1.5s .9s ease-in-out infinite;
      transform-origin: center center;
      opacity:0;
    }
    @keyframes move_sun_wave4 {
      0% {
        transform: translate(0px, 0px);
      }
      50% {
        transform: translate(5px, 5px);
      }
      100% {
        transform: translate(0px, 0px);
      }
    }

    .sun_wave5{
      animation: opacity .4s .6s ease-in-out forwards, move_sun_wave5 1.5s .9s ease-in-out infinite;
      transform-origin: center center;
      opacity:0;
    }
    @keyframes move_sun_wave5 {
      0% {
        transform: translate(0px, 0px);
      }
      50% {
        transform: translate(5px, -5px);
      }
      100% {
        transform: translate(0px, 0px);
      }
    }

    .sun_wave6{
      animation: opacity .3s .5s ease-in-out forwards, move_sun_wave6 2s .8s ease-in-out infinite;
      transform-origin: center center;
      opacity:0;
    }
    @keyframes move_sun_wave6 {
      0% {
        transform: translate(0px, 0px);
      }
      50% {
        transform: translate(0px, 5px);
      }
      100% {
        transform: translate(0px, 0px);
      }
    }

    .sun_wave7{
      animation: opacity .4s .6s ease-in-out forwards, move_sun_wave7 1.5s .9s ease-in-out infinite;
      transform-origin: center center;
      opacity:0;
    }
    @keyframes move_sun_wave7 {
      0% {
        transform: translate(0px, 0px);
      }
      50% {
        transform: translate(-5px, 5px);
      }
      100% {
        transform: translate(0px, 0px);
      }
    }

    .sun_wave8{
      animation: opacity .3s .5s ease-in-out forwards, move_sun_wave8 2s .8s ease-in-out infinite;
      transform-origin: center center;
      opacity:0;
    }
    @keyframes move_sun_wave8 {
      0% {
        transform: translate(0px, 0px);
      }
      50% {
        transform: translate(-5px, 0px);
      }
      100% {
        transform: translate(0px, 0px);
      }
    }

    .sun_wave9{
      animation: opacity .3s .5s ease-in-out forwards, move_sun_wave9 2s .8s ease-in-out infinite;
      transform-origin: center center;
      opacity:0;
    }
    @keyframes move_sun_wave9 {
      0% {
        transform: translate(0px, 0px);
      }
      50% {
        transform: translate(5px, 0px);
      }
      100% {
        transform: translate(0px, 0px);
      }
    }
  </style>

  <g fill="#fdd020" transform="scale(0.8) translate(60,60)" >
    <path class="sun" d="m376 240c0 75.109375-60.890625 136-136 136s-136-60.890625-136-136 60.890625-136 136-136 136 60.890625 136 136zm0 0"/>
    <path class="sun_wave1" d="m240 480c-4.417969 0-8-3.582031-8-8v-64c0-4.417969 3.582031-8 8-8s8 3.582031 8 8v64c0 4.417969-3.582031 8-8 8zm0 0"/>
    <path class="sun_wave2" d="m240 80c-4.417969 0-8-3.582031-8-8v-64c0-4.417969 3.582031-8 8-8s8 3.582031 8 8v64c0 4.417969-3.582031 8-8 8zm0 0"/>
    <path d="m120 120-48-48"/>
    <path class="sun_wave3" d="m120 128c-2.121094 0-4.15625-.84375-5.65625-2.34375l-48-48c-3.03125-3.140625-2.988281-8.128906.097656-11.214844 3.085938-3.085937 8.074219-3.128906 11.214844-.097656l48 48c2.285156 2.289062 2.972656 5.730469 1.734375 8.71875s-4.15625 4.9375-7.390625 4.9375zm0 0"/>
    <path d="m408 408-48-48"/>
    <path class="sun_wave4" d="m408 416c-2.121094 0-4.15625-.84375-5.65625-2.34375l-48-48c-3.03125-3.140625-2.988281-8.128906.097656-11.214844 3.085938-3.085937 8.074219-3.128906 11.214844-.097656l48 48c2.285156 2.289062 2.972656 5.730469 1.734375 8.71875s-4.15625 4.9375-7.390625 4.9375zm0 0"/>
    <path d="m360 120 48-48"/>
    <path class="sun_wave5" d="m360 128c-3.234375 0-6.152344-1.949219-7.390625-4.9375s-.550781-6.429688 1.734375-8.71875l48-48c3.140625-3.03125 8.128906-2.988281 11.214844.097656 3.085937 3.085938 3.128906 8.074219.097656 11.214844l-48 48c-1.5 1.5-3.535156 2.34375-5.65625 2.34375zm0 0"/>
    <path class="sun_wave8" d="m472 248h-64c-4.417969 0-8-3.582031-8-8s3.582031-8 8-8h64c4.417969 0 8 3.582031 8 8s-3.582031 8-8 8zm0 0"/>
    <path class="sun_wave9" d="m72 248h-64c-4.417969 0-8-3.582031-8-8s3.582031-8 8-8h64c4.417969 0 8 3.582031 8 8s-3.582031 8-8 8zm0 0"/>
    <path d="m72 408 48-48"/>
    <path class="sun_wave7" d="m72 416c-3.234375 0-6.152344-1.949219-7.390625-4.9375s-.550781-6.429688 1.734375-8.71875l48-48c3.140625-3.03125 8.128906-2.988281 11.214844.097656 3.085937 3.085938 3.128906 8.074219.097656 11.214844l-48 48c-1.5 1.5-3.535156 2.34375-5.65625 2.34375zm0 0"/>
  </g>

  <g transform="scale(0.9) translate(35,120)">
    <path class="cloud" d="m367.835938 288.960938h8c33.539062.003906 64.164062-19.058594 78.96875-49.15625 14.804687-30.09375 11.214843-65.988282-9.253907-92.554688-20.472656-26.570312-54.265625-39.191406-87.140625-32.546875-4.324218-21.582031-18.304687-39.992187-37.933594-49.957031-19.625-9.964844-42.738281-10.382813-62.714843-1.136719-18.078125-49.796875-73.101563-75.507813-122.898438-57.429687-49.796875 18.082031-75.507812 73.105468-57.429687 122.902343-43.621094 1.375-78.078125 37.480469-77.4257815 81.117188.6562495 43.640625 36.1835935 78.691406 79.8281255 78.761719" fill="#9FA9A8"/>
  </g>
<!-- filter="url(#blur)"  -->
</svg>
