<?xml version="1.0"?>
<svg xmlns="http://www.w3.org/2000/svg" height="472pt" viewBox="0 -1 58.9 58" width="472pt">
  <style>
    .cloud{
      animation: popup .5s ease-in-out forwards, wave 7s .6s ease-in-out infinite;
      animation-direction: alternate;
      transform-origin: center center;
    }
    .light{
    opacity: 0.2;
    animation: opacity_light 6s .7s ease-in infinite;
    }
    .drop{
        transform-origin: center center;
        animation: popup .5s ease-in forwards, bounce 5s .7s ease-out infinite;
    }

    @keyframes bounce {
      0%, 100% {
        transform:  scale(.9) translateY(0);
      }
      10% {
        transform: scale(.9) translateY(2px);
      }
      15% {
        transform: scale(.9) translateY(0px);
      }
    }
    @keyframes opacity_light {
      19% {
        opacity: 0.2;
      }
      20% {
        opacity: 1;
      }
      21% {
        opacity: 0.2;
      }
      22% {
        opacity: 1;
      }
      25% {
        opacity: 1;
      }
      26% {
        opacity: 0.2;
      }
      27% {
        opacity: 1;
      }
      40% {
        opacity: 0.2;
      }
      74% {
        opacity: 0.2;
      }
      75% {
        opacity: 1;
      }
      76% {
        opacity: 0.2;
      }
      77% {
        opacity: 1;
      }
      90% {
        opacity: 0.2;
      }

    }
  @keyframes wave {
    0% {
      transform: translate(0px, 0px) scale(.9) ;
    }
    30% {
      transform: translate(5px, 0px) scale(.9) ;
    }
    50% {
      transform: translate(2px, -1px) scale(.9) ;
    }
    75% {
      transform: translate(3px, 0px) scale(.9) ;
    }
    100% {
      transform: translate(0px, 0px) scale(.9) ;
    }
  }
  @keyframes popup {
    0% {
      transform: scale(0)
    }
    80% {
      transform: scale(1);
    }
    100% {
      transform: scale(.9);
    }
  }
  @keyframes opacity {
    0% {
      opacity: 0;
    }
    100% {
      opacity: 1;
    }
  }

  </style>
  <path class="cloud" d="m45.300781 44.449219c5.699219.101562 10.5-4.398438 10.597657-10.097657.101562-5.703124-4.398438-10.5-10.097657-10.601562-.199219 0-.300781 0-.5 0-.699219 0-1.402343.101562-2.101562.199219-.898438-4-4.398438-6.800781-8.5-6.800781-1.300781 0-2.5.300781-3.597657.800781-2.300781-6-9.101562-8.898438-15-6.597657-4.402343 1.699219-7.300781 5.898438-7.402343 10.597657 0 1.300781.199219 2.601562.699219 3.800781-5.199219 0-9.398438 4.300781-9.398438 9.5s4.199219 9.199219 9.398438 9.199219h.203124" fill="#9FA9A8"/>
  <path class="light" d="m26.898438 30.449219h-8l-4 12h9l-2.796876 14 11.796876-18h-8zm0 0" fill="#ffa754"/>
  <path class="drop" d="m40.898438 52.449219c0 2.199219-1.796876 4-4 4-2.199219 0-4-1.800781-4-4 0-3 4-10 4-10s4 7 4 10zm0 0" fill="#60a2d7"/>
</svg>
