<?xml version="1.0" encoding="iso-8859-1"?>
<!DOCTYPE svg PUBLIC "-//W3C//DTD SVG 1.1//EN" "http://www.w3.org/Graphics/SVG/1.1/DTD/svg11.dtd">
<svg version="1.1" id="Capa_1" xmlns="http://www.w3.org/2000/svg" xmlns:xlink="http://www.w3.org/1999/xlink" x="0px" y="0px" viewBox="0 0 215.388 215.388" style="enable-background:new 0 0 215.388 215.388;" xml:space="preserve">

<style>
.st0{fill:#ffffff;}
</style>

<g>
	<path class="st0" d="M211.884,107.231c-3.507-2.207-7.132-4.489-10.966-6.196c-9.087-4.044-17.049-4.045-26.138,0
		c-2.701,1.202-5.294,2.695-7.822,4.243c-3.989-29.149-29.037-51.685-59.264-51.685c-30.227,0-55.274,22.535-59.264,51.684
		c-2.526-1.547-5.12-3.04-7.822-4.243c-9.088-4.044-17.05-4.044-26.138,0c-3.834,1.707-7.459,3.989-10.966,6.196
		c-3.505,2.207-4.558,6.837-2.351,10.343c2.206,3.506,6.838,4.558,10.343,2.352c3.199-2.015,6.222-3.917,9.073-5.187
		c2.584-1.15,4.863-1.709,6.97-1.709c2.105,0,4.385,0.559,6.969,1.708c2.852,1.27,5.874,3.172,9.082,5.192
		c3.505,2.206,7.129,4.487,10.957,6.19c9.09,4.045,17.049,4.045,26.139,0c3.824-1.702,7.444-3.98,10.965-6.196
		c3.199-2.015,6.222-3.917,9.073-5.187c2.584-1.15,4.863-1.709,6.97-1.709s4.386,0.559,6.97,1.708
		c2.852,1.27,5.874,3.172,9.092,5.199c3.502,2.204,7.122,4.482,10.946,6.184c4.545,2.022,8.819,3.005,13.069,3.005
		s8.524-0.983,13.069-3.005c3.828-1.704,7.452-3.984,10.966-6.196c3.199-2.015,6.222-3.917,9.073-5.187
		c2.584-1.15,4.863-1.709,6.969-1.709c2.106,0,4.386,0.559,6.97,1.708c2.852,1.27,5.874,3.172,9.073,5.187
		c3.506,2.207,8.137,1.154,10.343-2.352C216.441,114.068,215.389,109.438,211.884,107.231z M140.802,112.417
		c-2.844-1.265-5.861-3.165-9.072-5.186c-3.507-2.207-7.132-4.489-10.966-6.196c-9.088-4.044-17.051-4.044-26.139,0
		c-3.834,1.707-7.459,3.989-10.982,6.207c-3.194,2.011-6.212,3.91-9.056,5.175c-2.584,1.15-4.864,1.709-6.97,1.709
		c-1.48,0-3.054-0.293-4.752-0.857c0.085-24.649,20.161-44.677,44.829-44.677s44.744,20.028,44.829,44.677
		c-1.698,0.564-3.272,0.857-4.752,0.857C145.666,114.126,143.386,113.567,140.802,112.417z"/>
	<path class="st0" d="M194.547,141.294c-2.938-1.85-5.976-3.762-9.231-5.212c-3.873-1.723-7.687-2.597-11.336-2.597
		c-3.65,0-7.464,0.874-11.335,2.597c-3.257,1.449-6.294,3.362-9.231,5.211c-2.606,1.641-5.069,3.19-7.34,4.201
		c-1.967,0.875-3.68,1.301-5.236,1.301s-3.269-0.425-5.235-1.301c-2.272-1.011-4.734-2.561-7.34-4.201
		c-2.938-1.85-5.976-3.762-9.231-5.212c-3.873-1.723-7.687-2.597-11.336-2.597s-7.463,0.874-11.336,2.598
		c-3.256,1.449-6.294,3.362-9.23,5.211c-2.606,1.641-5.068,3.19-7.342,4.202c-1.966,0.875-3.678,1.301-5.234,1.301
		s-3.27-0.426-5.235-1.301c-2.271-1.011-4.734-2.561-7.34-4.201c-2.938-1.85-5.976-3.763-9.231-5.211
		c-3.872-1.724-7.686-2.598-11.336-2.598c-3.649,0-7.463,0.874-11.337,2.598c-3.255,1.449-6.293,3.362-9.23,5.211
		c-3.505,2.207-4.558,6.837-2.351,10.343c2.208,3.506,6.839,4.557,10.343,2.351c2.605-1.64,5.066-3.189,7.339-4.201
		c1.967-0.875,3.68-1.301,5.236-1.301s3.269,0.426,5.235,1.301c2.274,1.012,4.735,2.561,7.341,4.202
		c2.938,1.85,5.978,3.763,9.23,5.211c3.873,1.723,7.687,2.597,11.336,2.597c3.65,0,7.464-0.874,11.335-2.597
		c3.253-1.448,6.292-3.361,9.232-5.211c2.605-1.64,5.066-3.189,7.339-4.201c1.967-0.875,3.68-1.301,5.236-1.301
		s3.27,0.426,5.235,1.301c2.273,1.012,4.734,2.562,7.341,4.202c2.939,1.85,5.979,3.763,9.23,5.21
		c3.872,1.724,7.686,2.598,11.336,2.598c3.649,0,7.463-0.874,11.337-2.598c3.252-1.448,6.291-3.36,9.23-5.211
		c2.604-1.64,5.065-3.189,7.341-4.202c1.966-0.875,3.678-1.301,5.234-1.301s3.27,0.426,5.235,1.301
		c2.273,1.012,4.734,2.562,7.34,4.202c3.505,2.208,8.136,1.156,10.343-2.351C199.104,148.131,198.052,143.5,194.547,141.294z"/>
</g>
</svg>
